<?xml version="1.0" standalone="no"?><!DOCTYPE svg PUBLIC "-//W3C//DTD SVG 1.1//EN" "http://www.w3.org/Graphics/SVG/1.1/DTD/svg11.dtd"><svg t="1620748290081" class="icon" viewBox="0 0 1024 1024" version="1.1" xmlns="http://www.w3.org/2000/svg" p-id="1410" xmlns:xlink="http://www.w3.org/1999/xlink" width="200" height="200"><defs><style type="text/css"></style></defs><path d="M878.933333 791.466667H230.4c-10.666667 0-19.2-8.533333-21.333333-17.066667L115.2 204.8C113.066667 185.6 96 170.666667 76.8 170.666667H32c-12.8 0-21.333333-8.533333-21.333333-21.333334s8.533333-21.333333 21.333333-21.333333h44.8c40.533333 0 74.666667 29.866667 81.066667 70.4l89.6 552.533333h631.466666c12.8 0 21.333333 8.533333 21.333334 21.333334s-10.666667 19.2-21.333334 19.2zM450.133333 896H298.666667c-12.8 0-21.333333-8.533333-21.333334-21.333333s8.533333-21.333333 21.333334-21.333334h151.466666c12.8 0 21.333333 8.533333 21.333334 21.333334s-8.533333 21.333333-21.333334 21.333333zM840.533333 896h-151.466666c-12.8 0-21.333333-8.533333-21.333334-21.333333s8.533333-21.333333 21.333334-21.333334h151.466666c12.8 0 21.333333 8.533333 21.333334 21.333334s-10.666667 21.333333-21.333334 21.333333z" fill="#f18391" p-id="1411"></path><path d="M928 701.866667H221.866667c-12.8 0-21.333333-8.533333-21.333334-21.333334s8.533333-21.333333 21.333334-21.333333h689.066666l57.6-396.8H145.066667c-12.8 0-21.333333-8.533333-21.333334-21.333333s8.533333-21.333333 21.333334-21.333334h846.933333c6.4 0 12.8 2.133333 17.066667 6.4 4.266667 4.266667 6.4 10.666667 4.266666 17.066667l-64 439.466667c0 10.666667-10.666667 19.2-21.333333 19.2z" fill="#f18391" p-id="1412"></path></svg>